HIERARCHY
ROOT hip
{
	OFFSET 0.000000 0.000000 0.000000 
	CHANNELS 6 Xposition Yposition Zposition Xrotation Zrotation Yrotation
	JOINT abdomen
	{
		OFFSET 0.000000 3.402643 0.000000 
		CHANNELS 3 Xrotation Zrotation Yrotation
		JOINT chest
		{
			OFFSET 0.000000 8.438565 -0.680529 
			CHANNELS 3 Xrotation Zrotation Yrotation
			JOINT neck
			{
				OFFSET 0.000000 10.207942 -0.272212 
				CHANNELS 3 Xrotation Zrotation Yrotation
				JOINT head
				{
					OFFSET 0.000000 3.130431 0.000000 
					CHANNELS 3 Xrotation Zrotation Yrotation
					End Site
					{
						OFFSET 0.000000 3.130435 0.000000 
					}
				}
			}
			JOINT lCollar
			{
				OFFSET 3.470700 6.669187 -0.816635 
				CHANNELS 3 Yrotation Zrotation Xrotation
				JOINT lShldr
				{
					OFFSET 3.198488 0.000000 0.000000 
					CHANNELS 3 Zrotation Yrotation Xrotation
					JOINT lForeArm
					{
						OFFSET 10.139888 0.000000 0.000000 
						CHANNELS 3 Yrotation Zrotation Xrotation
						JOINT lHand
						{
							OFFSET 8.370511 0.000000 0.000000 
							CHANNELS 3 Zrotation Yrotation Xrotation
							End Site
							{
								OFFSET 4.083176 0.000000 0.000000 
							}
						}
					}
				}
			}
			JOINT rCollar
			{
				OFFSET -3.470700 6.669187 -0.816635 
				CHANNELS 3 Yrotation Zrotation Xrotation
				JOINT rShldr
				{
					OFFSET -3.198488 0.000000 0.000000 
					CHANNELS 3 Zrotation Yrotation Xrotation
					JOINT rForeArm
					{
						OFFSET -10.139888 0.000000 0.000000 
						CHANNELS 3 Yrotation Zrotation Xrotation
						JOINT rHand
						{
							OFFSET -8.370511 0.000000 0.000000 
							CHANNELS 3 Zrotation Yrotation Xrotation
							End Site
							{
								OFFSET -4.083176 0.000000 0.000000 
							}
						}
					}
				}
			}
		}
	}
	JOINT lThigh
	{
		OFFSET 5.308129 -1.633274 1.361059 
		CHANNELS 3 Xrotation Zrotation Yrotation
		JOINT lShin
		{
			OFFSET -2.041588 -20.007561 0.000000 
			CHANNELS 3 Xrotation Zrotation Yrotation
			JOINT lFoot
			{
				OFFSET 0.000000 -19.190928 -1.224953 
				CHANNELS 3 Xrotation Yrotation Zrotation
				End Site
				{
					OFFSET 0.000000 -2.449906 4.627600 
				}
			}
		}
	}
	JOINT rThigh
	{
		OFFSET -5.308129 -1.633274 1.361059 
		CHANNELS 3 Xrotation Zrotation Yrotation
		JOINT rShin
		{
			OFFSET 2.041588 -20.007561 0.000000 
			CHANNELS 3 Xrotation Zrotation Yrotation
			JOINT rFoot
			{
				OFFSET 0.000000 -19.190928 -1.224953 
				CHANNELS 3 Xrotation Yrotation Zrotation
				End Site
				{
					OFFSET 0.000000 -2.449906 4.627600 
				}
			}
		}
	}
}
MOTION
Frames: 13
Frame Time: 0.033333
0.254637 46.170998 0.213441 -1.158578 5.946059 96.843506 0.000000 0.000000 0.000000 9.124144 1.475244 6.516376 26.966093 3.605770 0.139365 -23.267830 2.554996 1.225133 -11.866668 13.974951 25.000000 -93.381714 -0.958536 0.228690 -42.732903 6.072830 75.038574 -10.775467 -9.505864 -56.906399 -13.598510 -3.908063 23.575888 64.453247 10.785431 67.038689 28.400648 -32.170322 25.985279 32.392803 -7.349510 -80.934471 15.666949 4.023988 18.027983 18.874973 10.066740 1.836031 -0.545152 -25.493853 3.992796 25.121254 -0.029154 0.856802 3.854976 -2.801915 -1.148340 8.364863 -7.906338 23.371241 
0.255244 46.179352 0.248255 -1.511670 5.808538 96.468857 0.000000 0.000000 0.000000 8.940014 1.804002 6.592502 27.018272 3.408108 0.123337 -23.188896 2.864559 1.429120 -11.474960 13.838769 25.000000 -93.336487 -0.897574 0.199171 -42.533382 6.200552 75.088837 -11.066700 -9.607327 -56.807579 -13.311311 -3.960815 23.583355 64.428001 10.901085 67.006119 28.496220 -32.106037 26.210348 32.341858 -7.194137 -80.917694 15.999188 4.482589 18.177792 18.328144 9.578695 1.766688 -0.360667 -25.053709 4.357438 24.147360 0.400029 0.981738 5.310233 -3.006602 -1.094979 7.737028 -7.598779 23.464361 
0.281374 46.223080 0.270057 -1.590758 6.003561 96.084496 0.000000 0.000000 0.000000 9.145642 1.889748 6.603159 27.060282 3.187782 0.112343 -23.178251 3.139122 1.689818 -11.034778 13.628302 25.000000 -93.138969 -0.779959 0.100923 -42.411892 6.238608 75.383667 -11.497741 -9.675959 -56.669693 -12.970460 -4.058938 23.590324 64.770256 11.027644 67.180519 28.063681 -32.441349 26.570343 32.183922 -6.454648 -80.889465 17.224714 4.697534 18.179621 17.011265 8.847269 1.676369 0.164614 -24.449360 5.156437 23.260626 0.566370 1.045073 7.229840 -3.122328 -0.979610 6.932948 -7.655061 23.032459 
0.332195 46.313351 0.252228 -1.209259 6.629395 95.798805 0.000000 0.000000 0.000000 9.837662 1.558780 6.500902 27.084110 3.000059 0.098866 -23.184940 3.330047 1.912952 -10.679747 13.059256 25.000000 -92.454323 -0.530038 -0.262234 -42.321144 6.116626 75.597885 -12.862885 -10.264841 -56.162712 -12.652057 -4.372426 23.541519 65.917458 11.132043 67.845184 26.693647 -33.226406 26.592056 31.394747 -5.531607 -80.825630 19.691900 4.356097 17.835527 14.201537 7.906596 1.659883 1.431115 -24.027573 5.318527 22.365894 0.283085 0.957406 10.110577 -3.220725 -0.778927 6.992716 -7.607588 24.670181 
0.369399 46.390377 0.165442 -0.265905 7.431562 96.186600 0.000000 0.000000 0.000000 10.801666 0.729039 6.272016 27.072052 3.252666 0.120012 -23.253389 3.045231 1.624966 -11.113729 13.175756 25.000000 -92.561607 -0.897309 -0.212829 -41.957634 6.191217 75.924789 -13.124026 -10.608593 -55.941486 -12.856658 -4.238792 23.556246 65.631401 10.852511 67.732430 27.267420 -33.622128 26.093445 30.346039 -5.249634 -80.737198 22.075741 3.301440 17.233183 11.502211 7.558098 1.761003 2.422502 -24.342335 4.537444 22.117603 -0.693898 0.663436 12.218162 -2.840167 -0.518517 5.795245 -8.158493 24.453098 
0.391892 46.424870 0.096010 0.473264 7.919656 96.569839 0.000000 0.000000 0.000000 11.396498 0.086158 6.101366 27.081230 3.535089 0.131102 -23.321199 2.711128 1.290525 -11.615874 13.187392 25.000000 -92.489372 -1.177235 -0.261735 -41.710358 6.071800 76.131454 -13.391364 -10.375791 -55.860954 -13.096408 -4.014107 23.584204 65.275681 10.608041 67.571625 27.874615 -34.054600 26.217091 30.074627 -5.206444 -80.710724 23.830759 2.521166 16.749275 9.271948 7.330736 1.860701 3.339103 -24.821877 4.615869 21.633881 -1.464602 0.442065 14.086220 -2.645415 -0.306580 4.774921 -8.222209 23.745897 
0.410822 46.381275 0.079096 0.788550 7.802005 96.669884 0.000000 0.000000 0.000000 11.250144 -0.287339 6.026780 27.146362 3.719822 0.150375 -23.295328 2.487858 1.099049 -11.842240 12.965342 25.000000 -91.969810 -1.111748 -0.545843 -41.557693 5.605585 76.012413 -13.897225 -9.654570 -55.878670 -13.176098 -3.923435 23.597977 65.314545 10.415153 67.624756 28.030888 -34.508873 26.691526 30.248047 -5.183287 -80.735420 24.877716 2.227719 16.528372 7.362635 7.012021 1.913164 4.397533 -25.278450 5.381227 20.385078 -1.806070 0.320587 16.100586 -2.717201 -0.147916 4.602555 -7.849343 23.349293 
0.417657 46.298550 0.087603 0.856393 7.215999 96.660690 0.000000 0.000000 0.000000 10.576563 -0.489586 6.012021 27.181593 3.880833 0.164851 -23.174585 2.358193 0.971506 -11.934570 12.809965 25.000000 -91.535782 -0.884359 -0.771136 -41.418007 5.263481 75.665710 -14.213928 -9.179248 -55.941933 -13.239822 -4.007837 23.580469 65.526268 10.251707 67.779533 28.014185 -34.648991 26.810055 30.248453 -5.202814 -80.745186 24.823290 2.119654 16.498888 6.493572 6.856013 1.926155 4.854415 -25.560677 5.575572 19.104519 -1.942718 0.302899 17.397295 -2.753155 -0.055781 4.038095 -7.991053 21.336840 
0.410240 46.221638 0.082235 1.012315 6.473607 96.803970 0.000000 0.000000 0.000000 9.747027 -0.789223 5.977594 27.211111 4.139038 0.183982 -22.984674 2.188220 0.676713 -12.122870 12.930527 25.000000 -91.520653 -0.805382 -0.790818 -41.204372 5.215188 75.312469 -14.337550 -9.057382 -55.970852 -13.459088 -4.151744 23.522280 65.689186 10.095277 67.907631 28.048077 -34.557205 26.666651 30.229139 -5.203216 -80.756554 23.984613 1.847709 16.498457 6.561703 7.021774 1.963663 4.862429 -25.874926 5.683012 18.170555 -2.226243 0.215645 17.774939 -2.518457 0.030711 3.160661 -8.767533 18.879141 
0.384287 46.169811 0.062070 1.285615 5.682172 97.139374 0.000000 0.000000 0.000000 8.917975 -1.196303 5.915647 27.207335 4.520291 0.209727 -22.707371 2.027750 0.202657 -12.377089 13.597156 25.000000 -92.186295 -1.044508 -0.428375 -40.889206 5.460149 75.200119 -14.446685 -9.042409 -55.962978 -13.841401 -4.313169 23.444038 65.705658 9.959828 67.950386 28.272459 -34.298447 26.562658 30.353056 -5.122509 -80.755920 22.306688 1.349849 16.483143 7.837501 7.582333 2.022349 4.308838 -26.059538 5.713169 17.947395 -2.734277 0.080394 16.935354 -2.401336 -0.016551 4.537984 -8.064350 21.820587 
0.351231 46.153370 0.064941 1.284434 5.125671 97.380806 0.000000 0.000000 0.000000 8.351725 -1.285059 5.924472 27.178627 4.757868 0.229938 -22.483208 2.057657 -0.097471 -12.485840 14.396441 25.000000 -93.107803 -1.394445 0.071920 -40.659595 5.798455 75.381783 -14.489413 -8.966002 -55.979633 -14.114874 -4.410696 23.387444 65.564674 9.873697 67.876572 28.669159 -34.021488 26.751215 30.661720 -5.096685 -80.758751 20.411222 1.203190 16.634188 9.921090 8.202924 2.016064 3.327211 -25.947575 5.753481 18.365175 -2.860992 0.032658 15.196303 -2.176681 -0.128344 4.665258 -8.345788 22.206196 
0.321736 46.154896 0.104822 0.823264 4.853017 97.384682 0.000000 0.000000 0.000000 8.028255 -0.860624 6.030830 27.149258 4.759208 0.227322 -22.389673 2.243942 -0.067774 -12.426283 14.948306 25.000000 -93.852997 -1.598569 0.464628 -40.714985 6.198069 75.924484 -14.343013 -8.930543 -56.009903 -14.214790 -4.450937 23.370317 65.331810 9.879890 67.734680 29.112236 -33.755505 27.178753 31.098080 -5.175940 -80.781303 18.595430 1.662311 16.949251 12.380146 8.686730 1.967327 1.960719 -25.521181 5.615369 19.215973 -2.392815 0.164186 13.205371 -2.050027 -0.242345 4.712192 -9.204657 21.329876 
0.286022 46.136486 0.174846 -0.009797 4.570313 97.196487 0.000000 0.000000 0.000000 7.675787 -0.067747 6.221327 27.080112 4.527272 0.208606 -22.425226 2.494308 0.277871 -12.254652 15.163444 25.000000 -94.376099 -1.595827 0.749740 -41.199085 6.794408 77.030052 -13.856056 -9.242279 -55.998489 -14.160940 -4.486891 23.369314 65.073746 10.001754 67.562073 29.388231 -33.316063 27.290682 31.535246 -5.304290 -80.803810 16.403109 2.578881 17.453932 15.444625 9.186683 1.870153 0.623266 -25.004368 5.770756 20.442974 -1.532832 0.420882 10.370788 -2.197168 -0.525543 5.646198 -9.129092 21.168886 
